<?xml version="1.0" encoding="utf-8"?>
<!-- Generator: Adobe Illustrator 23.0.6, SVG Export Plug-In . SVG Version: 6.00 Build 0)  -->
<svg version="1.1" xmlns="http://www.w3.org/2000/svg" xmlns:xlink="http://www.w3.org/1999/xlink" x="0px" y="0px"
	 viewBox="0 0 72 72" style="enable-background:new 0 0 72 72;" xml:space="preserve">
<style type="text/css">
	.st0{display:none;}
	.st1{display:inline;fill:none;stroke:#000000;stroke-miterlimit:10;}
	.st2{fill:none;stroke:#000000;stroke-miterlimit:10;}
</style>
<g id="Layer_1" class="st0">
	<path class="st1" d="M13.9,72.1"/>
	<path class="st1" d="M17.7,72"/>
	
		<image style="display:inline;overflow:visible;" width="4032" height="3024" xlink:href="70FA880D.jpg"  transform="matrix(2.473180e-10 2.073964e-02 -2.073964e-02 2.473180e-10 139.3633 -5.404)">
	</image>
</g>
<g id="Layer_2">
	<path class="st2" d="M61.3,57.2"/>
	<path d="M56.7,58.1c0,0,0,4,2.7,5c3.2,1.2,3.5-2.3,3.5-2.3s3.1,4.4-0.7,8.2c-3,3-10,2.3-12.2-0.9c-1.8-2.6-2.6-4.3-2.6-10.3
		c0-1.6,0-1.8,0-14.1c0-6.7-3.3-11.2-6.9-10.9c-7.2,0.8-11.3-1.8-12.1-6.8c-1-6.3,4.2-12.6,9.3-9.9c3.7,2,0.7,6.8,0.7,6.2
		c-0.1-2.5-2.9-4.2-4.9-1.3c-1.2,1.8-0.5,5.1,1.9,5.8c4.4,1.2,10-4.9,7.8-10.6c-3.5-9.1-19.3-7.6-19.3,14.1c0,19.6,0,21.7,0,26.3
		c0,0,0,5.3,2.7,6.3c3.2,1.2,3.5-2.3,3.5-2.3s3.2,4.5-0.7,8.2c-3.2,3.1-9,2.5-12.2-0.9c-1.5-1.6-2.8-3.9-2.8-8.8
		c0-9.8-0.1-37.6-0.1-37.6s0-5.9-2.7-6.9c-3.2-1.2-3.5,2.3-3.5,2.3s-3.2-4.5,0.7-8.2C12.1,5.5,18,6,21,9.5c0.8,0.9,1.6,2.2,1.6,2.2
		s3.4-8.3,15-8.3s15.5,7.5,16.2,14.1c0.7,6.1-2.5,11-5.5,11.7c0,0,8.2-0.7,8.2,12C56.5,50.8,56.7,58.1,56.7,58.1z"/>
</g>
</svg>
