<?xml version="1.0" encoding="utf-8"?>
<!-- Generator: Adobe Illustrator 23.0.6, SVG Export Plug-In . SVG Version: 6.00 Build 0)  -->
<svg version="1.1" id="Layer_1" xmlns="http://www.w3.org/2000/svg" xmlns:xlink="http://www.w3.org/1999/xlink" x="0px" y="0px"
	 viewBox="0 0 144 216" style="enable-background:new 0 0 144 216;" xml:space="preserve">
<style type="text/css">
	.st0{fill:#FD55D3;}
	.st1{fill:#5D22C2;}
	.st2{clip-path:url(#SVGID_2_);}
	.st3{clip-path:url(#SVGID_4_);fill:#231F20;}
	.st4{clip-path:url(#SVGID_4_);fill:none;stroke:#5D22C2;stroke-width:0.7793;stroke-miterlimit:10;}
	.st5{clip-path:url(#SVGID_6_);fill:#231F20;}
	.st6{clip-path:url(#SVGID_6_);fill:none;stroke:#5D22C2;stroke-width:5.401508e-02;stroke-miterlimit:10;}
	.st7{clip-path:url(#SVGID_6_);fill:none;stroke:#5D22C2;stroke-width:0.7022;stroke-miterlimit:10;}
	.st8{clip-path:url(#SVGID_8_);}
	.st9{clip-path:url(#SVGID_10_);fill:#231F20;}
	.st10{clip-path:url(#SVGID_10_);fill:none;stroke:#5D22C2;stroke-width:0.6685;stroke-miterlimit:10;}
	.st11{clip-path:url(#SVGID_10_);fill:none;stroke:#5D22C2;stroke-width:0.7242;stroke-miterlimit:10;}
	.st12{clip-path:url(#SVGID_10_);fill:none;stroke:#231F20;stroke-width:0.7242;stroke-miterlimit:10;}
</style>
<rect x="-0.1" y="0.5" class="st0" width="650.7" height="215.6"/>
<ellipse class="st1" cx="71.7" cy="71.7" rx="13.1" ry="13.4"/>
<ellipse class="st1" cx="72.2" cy="125.5" rx="13.1" ry="13.4"/>
<ellipse class="st1" cx="72.2" cy="176.4" rx="13.1" ry="13.4"/>
<rect x="0" y="0.2" width="227.8" height="53.8"/>
<g>
	<g>
		<g>
			<path class="st1" d="M3.1,22.8l1.8-1.9c1,1.4,2.2,2,3.4,2c2.1,0,3.1-1,3.1-3.5v-8.6H4.5V8.3h9.9v11.4c0,3.3-1.5,5.9-6,5.9
				C6.5,25.6,4.4,24.8,3.1,22.8z"/>
			<path class="st1" d="M17.4,21.9c0-2.9,2.5-4.3,8.8-4.7c-0.1-1.4-1-2.5-3-2.5c-1.4,0-2.9,0.6-4.2,1.4l-1.1-2
				c1.5-0.9,3.6-1.8,5.8-1.8c3.5,0,5.5,2,5.5,5.5v7.6h-2.5l-0.2-1.6h-0.1c-1.3,1-3.1,1.9-4.8,1.9C19.2,25.6,17.4,24.1,17.4,21.9z
				 M26.2,21.7V19c-4.6,0.3-5.9,1.2-5.9,2.6c0,1.1,1,1.6,2.3,1.6C23.9,23.3,25,22.6,26.2,21.7z"/>
			<path class="st1" d="M31,12.5h2.3l0.2,1.6h0.1c0.6-1.1,1.4-1.9,2.8-1.9c1.2,0,2,0.7,2.3,2.1c0.6-1.3,1.4-2.1,2.9-2.1
				c1.8,0,2.8,1.5,2.8,4v9h-2.9v-8.8c0-1.1-0.3-1.7-1-1.7c-0.7,0-1.1,0.5-1.6,1.6v8.9h-2.5v-8.8c0-1.1-0.3-1.7-1-1.7
				c-0.7,0-1.1,0.5-1.6,1.6v8.9H31C31,25.3,31,12.5,31,12.5z"/>
			<path class="st1" d="M45.9,18.9c0-4.2,3.2-6.7,6.6-6.7c3.8,0,5.9,2.5,5.9,6.1c0,0.6-0.1,1.2-0.1,1.5H48.1v-2.1h8.3l-0.6,0.7
				c0-2.5-1.2-3.8-3.2-3.8c-2.1,0-3.7,1.5-3.7,4.4c0,3,1.8,4.4,4.4,4.4c1.3,0,2.4-0.4,3.6-1l1,1.9c-1.4,0.9-3.1,1.5-5,1.5
				C49,25.6,45.9,23.1,45.9,18.9z"/>
			<path class="st1" d="M59.9,23.6l1.3-1.9c1.5,1,3.3,1.6,5.3,1.6c1.8,0,2.6-0.7,2.6-1.5c0-0.8-0.6-1.3-3.5-1.9
				c-3.4-0.7-4.9-1.9-4.9-3.9c0-2.2,2-3.8,5.6-3.8c2.1,0,4.1,0.8,5.3,1.7l-1.4,1.9c-1.2-0.8-2.7-1.3-4.2-1.3c-1.7,0-2.3,0.6-2.3,1.4
				c0,0.9,0.9,1.2,3.3,1.7c4.1,0.9,5.1,2,5.1,4c0,2.2-2.1,4-6,4C63.8,25.6,61.5,24.7,59.9,23.6z"/>
			<path class="st1" d="M85,8.3h5.7c3.5,0,6.3,1.3,6.3,5.1c0,3.6-2.7,5.3-6.3,5.3H88v6.6h-3V8.3z M90.3,16.3c2.3,0,3.6-1,3.6-2.9
				c0-1.9-1.3-2.6-3.6-2.6H88v5.5L90.3,16.3L90.3,16.3z M92.3,16l5.3,9.3h-3.4l-4.1-7.4L92.3,16z"/>
			<path class="st1" d="M98.9,20.4v-7.9h3v7.5c0,2,0.6,3,2.4,3c1.2,0,2.1-0.5,3.2-1.9v-8.6h3v12.8H108l-0.2-2h-0.1
				c-1.2,1.4-2.6,2.3-4.5,2.3C100.2,25.6,98.9,23.7,98.9,20.4z"/>
			<path class="st1" d="M116.1,20.2v-5.3h-3.4v-2.2l3.5-0.1l0.4-4h2.5v4h5.8v2.4h-5.8v5.2c0,2.1,0.8,3.1,2.9,3.1
				c1.1,0,1.9-0.2,2.8-0.5l0.6,2.2c-1.1,0.4-2.4,0.7-4.1,0.7C117.4,25.6,116.1,23.4,116.1,20.2z"/>
			<path class="st1" d="M127.2,6.9h3v4.7l-0.2,2.7h0.1c1.1-1.2,2.6-2.2,4.5-2.2c2.9,0,4.3,1.9,4.3,5.2v7.9h-3v-7.5
				c0-2.1-0.7-3-2.4-3c-1.3,0-2.1,0.6-3.3,1.8v8.7h-3C127.2,25.3,127.2,6.9,127.2,6.9z"/>
		</g>
	</g>
	<g>
		<g>
			<path class="st0" d="M11,36.2c0-3.2,1.8-5.1,4.4-5.1c1.3,0,2.2,0.6,2.7,1.2l-0.7,0.8c-0.5-0.5-1-0.9-2-0.9c-1.9,0-3,1.5-3,4
				c0,2.5,1.1,4,3,4c0.7,0,1.3-0.2,1.7-0.6v-2.6h-1.9v-1h3.1v4.1c-0.6,0.6-1.7,1.1-2.9,1.1C12.8,41.3,11,39.5,11,36.2z"/>
			<path class="st0" d="M20.8,33.9h1l0.1,1.7h0c0.8-1.2,1.9-1.9,3.3-1.9c0.5,0,1,0.1,1.4,0.3L26.4,35c-0.5-0.2-0.8-0.2-1.4-0.2
				c-1.1,0-2.1,0.6-3,2.1v4.3h-1.2V33.9z"/>
			<path class="st0" d="M28.1,39.3c0-1.6,1.5-2.4,5.3-2.7c0-1-0.5-1.8-1.9-1.8c-0.9,0-1.9,0.5-2.5,0.9l-0.5-0.8c0.8-0.5,2-1,3.3-1
				c2,0,3,1.2,3,3v4.5h-1l-0.1-1h0c-0.8,0.6-1.8,1.2-2.9,1.2C29.3,41.3,28.1,40.6,28.1,39.3z M33.4,39.3v-1.9
				c-3.1,0.2-4.1,0.8-4.1,1.8c0,0.8,0.8,1.2,1.6,1.2C31.8,40.3,32.6,39.9,33.4,39.3z"/>
			<path class="st0" d="M36.6,33.9h1l0.1,0.9h0c0.7-0.7,1.6-1.1,2.5-1.1c2,0,3,1.5,3,3.7c0,2.5-1.6,3.9-3.3,3.9
				c-0.7,0-1.5-0.3-2.2-1h0l0.1,1.4v2.5h-1.3V33.9z M42,37.4c0-1.6-0.6-2.7-2.1-2.7c-0.6,0-1.4,0.3-2.1,1.1v3.6
				c0.7,0.6,1.4,0.8,1.9,0.8C41.1,40.3,42,39.2,42,37.4z"/>
			<path class="st0" d="M45,30.5h1.3v2.9l-0.1,1.7h0c0.7-0.8,1.6-1.4,2.7-1.4c1.7,0,2.5,1,2.5,2.9v4.5h-1.3v-4.4c0-1.4-0.5-2-1.7-2
				c-0.9,0-1.5,0.4-2.3,1.3v5.1H45V30.5z"/>
			<path class="st0" d="M56.7,34.9h-3.4v-1h4.6v7.3h-1.3L56.7,34.9L56.7,34.9z M56.2,31.4c0-0.6,0.4-1,1-1s1,0.4,1,1
				c0,0.6-0.4,1-1,1S56.2,32,56.2,31.4z"/>
			<path class="st0" d="M61.6,37.5c0-2.4,1.9-3.8,4.1-3.8c1.2,0,2.1,0.5,2.7,1.1l-0.6,0.8c-0.6-0.5-1.2-0.8-2-0.8
				c-1.7,0-2.8,1.1-2.8,2.8s1.1,2.8,2.8,2.8c0.9,0,1.7-0.4,2.3-0.9l0.6,0.8c-0.8,0.7-1.8,1.1-2.9,1.1C63.3,41.3,61.6,39.9,61.6,37.5
				z"/>
			<path class="st0" d="M78.4,31.3h2.4c3,0,4.6,1.8,4.6,4.9c0,3.1-1.6,5-4.5,5h-2.5V31.3z M80.8,40.1c2.2,0,3.3-1.4,3.3-3.9
				c0-2.5-1.1-3.8-3.3-3.8h-1.1v7.8H80.8z"/>
			<path class="st0" d="M86.9,37.5c0-2.4,1.8-3.8,3.7-3.8c2.1,0,3.3,1.4,3.3,3.4c0,0.3,0,0.6-0.1,0.8h-6.2v-1h5.4l-0.3,0.3
				c0-1.7-0.9-2.6-2.2-2.6c-1.3,0-2.5,1-2.5,2.8c0,1.9,1.2,2.8,2.8,2.8c0.9,0,1.6-0.3,2.2-0.7l0.4,0.8c-0.7,0.5-1.7,0.9-2.8,0.9
				C88.6,41.3,86.9,39.9,86.9,37.5z"/>
			<path class="st0" d="M95.6,40.2l0.6-0.8c0.8,0.6,1.8,1,3.2,1c1.2,0,1.8-0.5,1.8-1.1c0-0.6-0.3-0.9-2.3-1.3
				c-1.9-0.4-2.8-1-2.8-2.1c0-1.2,1-2.1,3-2.1c1.1,0,2.2,0.4,2.9,0.9l-0.6,0.8c-0.7-0.5-1.5-0.8-2.4-0.8c-1.2,0-1.7,0.5-1.7,1
				c0,0.6,0.6,0.9,2.1,1.2c2.4,0.5,3,1.1,3,2.3c0,1.2-1.2,2.2-3.2,2.2C97.8,41.3,96.5,40.8,95.6,40.2z"/>
			<path class="st0" d="M107.7,34.9h-3.4v-1h4.6v7.3h-1.3L107.7,34.9L107.7,34.9z M107.2,31.4c0-0.6,0.4-1,1-1s1,0.4,1,1
				c0,0.6-0.4,1-1,1S107.2,32,107.2,31.4z"/>
			<path class="st0" d="M110.9,42.5c0-0.6,0.4-1.2,1.2-1.6v-0.1c-0.4-0.2-0.8-0.6-0.8-1.2c0-0.5,0.3-1,0.9-1.4v-0.1
				c-0.5-0.4-0.9-1-0.9-1.9c0-1.6,1.3-2.6,2.9-2.6c0.4,0,0.8,0.1,1.1,0.2h3v1h-1.9c0.3,0.3,0.6,0.9,0.6,1.5c0,1.6-1.3,2.5-2.8,2.5
				c-0.4,0-0.8-0.1-1.2-0.3c-0.4,0.2-0.6,0.5-0.6,0.8c0,0.6,0.6,0.8,1.5,0.8h1.6c1.9,0,2.8,0.5,2.8,1.7c0,1.4-1.6,2.5-4.1,2.5
				C112.1,44.5,110.9,43.8,110.9,42.5z M117.1,42.2c0-0.7-0.6-0.9-1.7-0.9H114c-0.4,0-0.8,0-1.1-0.1c-0.7,0.4-0.9,0.8-0.9,1.2
				c0,0.8,0.8,1.3,2.4,1.3C116,43.6,117.1,42.9,117.1,42.2z M115.8,36.3c0-1-0.8-1.7-1.7-1.7c-0.9,0-1.7,0.7-1.7,1.7
				c0,1,0.8,1.7,1.7,1.7C115.1,38,115.8,37.3,115.8,36.3z"/>
			<path class="st0" d="M119.6,33.9h1l0.1,1.2h0.1c0.8-0.8,1.6-1.4,2.8-1.4c1.7,0,2.5,1,2.5,2.9v4.5h-1.3v-4.4c0-1.4-0.5-2-1.7-2
				c-0.9,0-1.5,0.4-2.3,1.3v5.1h-1.3L119.6,33.9L119.6,33.9z"/>
			<path class="st0" d="M127.6,37.5c0-2.4,1.8-3.8,3.7-3.8c2.1,0,3.3,1.4,3.3,3.4c0,0.3,0,0.6-0.1,0.8h-6.2v-1h5.4l-0.3,0.3
				c0-1.7-0.9-2.6-2.2-2.6c-1.4,0-2.5,1-2.5,2.8c0,1.9,1.2,2.8,2.9,2.8c0.9,0,1.6-0.3,2.2-0.7l0.4,0.8c-0.7,0.5-1.6,0.9-2.8,0.9
				C129.3,41.3,127.6,39.9,127.6,37.5z"/>
			<path class="st0" d="M137.1,33.9h1l0.1,1.7h0c0.8-1.2,1.9-1.9,3.3-1.9c0.5,0,1,0.1,1.4,0.3l-0.3,1.1c-0.5-0.2-0.8-0.2-1.4-0.2
				c-1.1,0-2.1,0.6-3,2.1v4.3h-1.3L137.1,33.9L137.1,33.9z"/>
		</g>
	</g>
</g>
<g>
	<g>
		<defs>
			
				<rect id="SVGID_1_" x="51.6" y="46.2" transform="matrix(0.8853 -0.465 0.465 0.8853 -25.6398 42.0259)" width="41.4" height="53.6"/>
		</defs>
		<clipPath id="SVGID_2_">
			<use xlink:href="#SVGID_1_"  style="overflow:visible;"/>
		</clipPath>
		<g class="st2">
			<defs>
				
					<rect id="SVGID_3_" x="51.6" y="46.2" transform="matrix(0.8853 -0.465 0.465 0.8853 -25.6398 42.0259)" width="41.4" height="53.6"/>
			</defs>
			<clipPath id="SVGID_4_">
				<use xlink:href="#SVGID_3_"  style="overflow:visible;"/>
			</clipPath>
			<path class="st3" d="M70.9,68.6c0,0-4.3,0.9-1.3,6.2c2.1,3.7,5.9,1.3,5.9,1.3l2.1,3.5c0,0-7.1,5-11.5-3.3
				c-4.8-9.2,2.5-11.5,2.5-11.5L70.9,68.6z"/>
			
				<rect x="75.2" y="74" transform="matrix(0.8792 -0.4764 0.4764 0.8792 -27.5729 46.0893)" class="st3" width="3.8" height="6.9"/>
			
				<rect x="75.2" y="74" transform="matrix(0.8792 -0.4764 0.4764 0.8792 -27.5729 46.0893)" class="st4" width="3.8" height="6.9"/>
			
				<rect x="68.9" y="62.5" transform="matrix(0.8792 -0.4764 0.4764 0.8792 -22.8835 41.6834)" class="st3" width="3.8" height="6.9"/>
			
				<rect x="68.9" y="62.5" transform="matrix(0.8792 -0.4764 0.4764 0.8792 -22.8835 41.6834)" class="st4" width="3.8" height="6.9"/>
		</g>
	</g>
</g>
<g>
	<g>
		<defs>
			<rect id="SVGID_5_" x="57.2" y="155.9" width="31.4" height="45"/>
		</defs>
		<clipPath id="SVGID_6_">
			<use xlink:href="#SVGID_5_"  style="overflow:visible;"/>
		</clipPath>
		<rect x="63.2" y="171.2" class="st5" width="17.4" height="11"/>
		<rect x="63.2" y="171.2" class="st6" width="17.4" height="11"/>
		<polyline class="st5" points="80.8,171.9 71.8,177.5 63,171.8 		"/>
		<polyline class="st7" points="80.8,171.9 71.8,177.5 63,171.8 		"/>
	</g>
</g>
<g>
	<g>
		<defs>
			
				<rect id="SVGID_7_" x="48.1" y="116.1" transform="matrix(0.4193 -0.9078 0.9078 0.4193 -80.3772 144.0572)" width="48.6" height="37.6"/>
		</defs>
		<clipPath id="SVGID_8_">
			<use xlink:href="#SVGID_7_"  style="overflow:visible;"/>
		</clipPath>
		<g class="st8">
			<defs>
				
					<rect id="SVGID_9_" x="48.1" y="116.1" transform="matrix(0.4193 -0.9078 0.9078 0.4193 -80.3772 144.0572)" width="48.6" height="37.6"/>
			</defs>
			<clipPath id="SVGID_10_">
				<use xlink:href="#SVGID_9_"  style="overflow:visible;"/>
			</clipPath>
			<path class="st9" d="M76.3,130c-1.8,3.8-3.3,6.8-8.1,4.6c-4.7-2.2-3.5-5.4-1.8-9.2c1.8-3.8,5.4-5.9,8.1-4.6
				C77.2,122.1,78,126.2,76.3,130"/>
			
				<ellipse transform="matrix(0.4193 -0.9078 0.9078 0.4193 -74.5267 138.8849)" class="st10" cx="71.3" cy="127.7" rx="7.6" ry="5.5"/>
			<polyline class="st11" points="74.5,120.8 72.5,125.1 77.2,127.3 67.9,123 			"/>
			<path class="st12" d="M74.3,121.2c0,0,1-1.8-0.8-2.6c-1.1-0.5-1.3-1.5-0.4-2.1c1.8-1.2,2.5,2.3,3.8,1.4c1-0.7,0.5-3.3,0.5-3.3"/>
		</g>
	</g>
</g>
<g>
	<path d="M12.5,198.7c0-0.2,0-0.4,0-0.6s-0.1-0.3-0.1-0.4s-0.1-0.2-0.2-0.2s-0.2-0.1-0.3-0.1c-0.2,0-0.4,0.1-0.7,0.3
		s-0.5,0.5-0.7,0.9v3.8H8.9v-6h1.3l0.1,0.9c0.1-0.2,0.2-0.3,0.3-0.4s0.3-0.2,0.4-0.3s0.3-0.2,0.5-0.2s0.4-0.1,0.6-0.1
		c0.3,0,0.6,0.1,0.8,0.2s0.4,0.3,0.6,0.5s0.3,0.5,0.4,0.8s0.1,0.7,0.1,1.1H12.5z"/>
	<path d="M16.4,196.4v3.9c0,0.3,0.1,0.6,0.2,0.7s0.3,0.2,0.6,0.2c0.2,0,0.5-0.1,0.7-0.3s0.5-0.5,0.7-0.8v-3.8H20v6h-1.2l0-0.9
		c-0.1,0.2-0.3,0.3-0.4,0.4s-0.3,0.2-0.4,0.3s-0.3,0.2-0.5,0.2s-0.4,0.1-0.6,0.1c-0.3,0-0.6,0-0.8-0.1s-0.4-0.2-0.6-0.4
		s-0.3-0.4-0.3-0.7s-0.1-0.5-0.1-0.9v-4H16.4z"/>
	<path d="M26.4,202.3c-0.3,0.1-0.5,0.1-0.8,0.1s-0.5,0.1-0.7,0.1c-0.4,0-0.7,0-1-0.1s-0.5-0.2-0.7-0.4s-0.3-0.4-0.4-0.6
		s-0.1-0.6-0.1-0.9v-2.9H21v-1.1h1.6v-1.5l1.5-0.4v1.9h2.3v1.1h-2.3v2.8c0,0.3,0.1,0.6,0.2,0.8s0.4,0.3,0.8,0.3c0.2,0,0.5,0,0.7-0.1
		s0.4-0.1,0.6-0.1V202.3z"/>
	<path d="M31.3,202.4v-3.9c0-0.7-0.2-1-0.7-1c-0.2,0-0.5,0.1-0.7,0.3s-0.5,0.5-0.7,0.8v3.8h-1.4v-8.3h1.4v2l-0.1,1.1
		c0.1-0.1,0.2-0.3,0.4-0.4s0.3-0.2,0.4-0.3s0.3-0.1,0.5-0.2s0.4-0.1,0.6-0.1c0.3,0,0.6,0,0.8,0.1s0.4,0.2,0.6,0.4s0.3,0.4,0.3,0.7
		s0.1,0.5,0.1,0.9v4H31.3z"/>
	<path d="M38,202.4l0-0.9c-0.1,0.2-0.3,0.3-0.4,0.4s-0.3,0.2-0.4,0.3s-0.3,0.2-0.5,0.2s-0.4,0.1-0.6,0.1c-0.4,0-0.7-0.1-0.9-0.2
		s-0.5-0.3-0.7-0.6s-0.3-0.6-0.4-0.9s-0.1-0.8-0.1-1.2c0-0.5,0.1-1,0.2-1.4s0.4-0.7,0.6-1s0.6-0.5,1-0.6s0.8-0.2,1.2-0.2
		c0.1,0,0.3,0,0.4,0s0.3,0,0.4,0.1v-2.3h1.4v8.3H38z M35.4,199.4c0,0.3,0,0.6,0.1,0.8s0.1,0.4,0.2,0.6s0.2,0.3,0.3,0.3
		s0.3,0.1,0.4,0.1c0.2,0,0.5-0.1,0.7-0.3s0.5-0.5,0.7-0.8v-2.6c-0.1,0-0.3-0.1-0.4-0.1s-0.3,0-0.5,0c-0.2,0-0.4,0-0.6,0.1
		s-0.3,0.2-0.5,0.4s-0.2,0.4-0.3,0.6S35.4,199.1,35.4,199.4z"/>
	<path d="M45.9,198.9c0,0.1,0,0.2,0,0.4s0,0.3,0,0.4H42c0,0.3,0,0.5,0.1,0.7s0.2,0.4,0.3,0.5s0.3,0.2,0.5,0.3s0.4,0.1,0.7,0.1
		c0.3,0,0.6,0,0.9-0.1s0.7-0.1,1-0.2v1.1c-0.2,0-0.3,0.1-0.5,0.1s-0.4,0.1-0.6,0.1s-0.4,0-0.6,0.1s-0.4,0-0.6,0
		c-0.5,0-0.9-0.1-1.2-0.2s-0.7-0.3-0.9-0.6s-0.4-0.6-0.6-0.9s-0.2-0.8-0.2-1.3c0-0.5,0.1-0.9,0.2-1.3s0.3-0.7,0.6-1s0.5-0.5,0.9-0.7
		s0.7-0.2,1.2-0.2c0.4,0,0.8,0.1,1.1,0.2s0.6,0.3,0.8,0.5s0.4,0.5,0.5,0.8S45.9,198.5,45.9,198.9z M44.4,198.7c0-0.2,0-0.4-0.1-0.6
		s-0.1-0.3-0.3-0.4s-0.2-0.2-0.4-0.3s-0.3-0.1-0.5-0.1c-0.4,0-0.7,0.1-0.9,0.4s-0.4,0.6-0.4,1H44.4z"/>
	<path d="M51.9,200.6c0,0.3-0.1,0.6-0.2,0.9s-0.3,0.4-0.6,0.6s-0.5,0.3-0.8,0.3s-0.6,0.1-1,0.1c-0.4,0-0.8,0-1.2-0.1s-0.7-0.1-1-0.2
		V201c0.4,0.2,0.7,0.3,1.1,0.3s0.7,0.1,1,0.1c0.4,0,0.7-0.1,0.8-0.2s0.3-0.3,0.3-0.5c0-0.1,0-0.2-0.1-0.2s-0.1-0.1-0.2-0.2
		s-0.3-0.1-0.5-0.2s-0.5-0.2-0.8-0.2c-0.3-0.1-0.5-0.2-0.8-0.3s-0.4-0.2-0.5-0.4s-0.3-0.3-0.3-0.5s-0.1-0.4-0.1-0.7
		c0-0.2,0.1-0.5,0.2-0.7s0.3-0.4,0.5-0.6s0.5-0.3,0.8-0.4s0.7-0.1,1.1-0.1c0.4,0,0.7,0,1,0.1s0.5,0.1,0.8,0.1v1.2
		c-0.3-0.1-0.7-0.2-1-0.2s-0.6-0.1-0.9-0.1s-0.5,0.1-0.7,0.2s-0.3,0.3-0.3,0.4c0,0.1,0,0.2,0.1,0.2s0.1,0.1,0.2,0.2s0.2,0.1,0.4,0.2
		s0.4,0.2,0.7,0.2c0.3,0.1,0.6,0.2,0.9,0.3s0.4,0.2,0.6,0.4s0.2,0.3,0.3,0.5S51.9,200.4,51.9,200.6z"/>
	<path d="M55.1,197.5h-1.7v-1.1h3.1v4.8h1.7v1.1h-5.1v-1.1h1.9V197.5z M56.6,194.8c0,0.1,0,0.3-0.1,0.4s-0.1,0.2-0.2,0.3
		s-0.2,0.2-0.3,0.2s-0.2,0.1-0.4,0.1s-0.3,0-0.4-0.1s-0.2-0.1-0.3-0.2s-0.1-0.2-0.2-0.3s-0.1-0.2-0.1-0.4s0-0.3,0.1-0.4
		s0.1-0.2,0.2-0.3s0.2-0.2,0.3-0.2s0.2-0.1,0.4-0.1s0.3,0,0.4,0.1s0.2,0.1,0.3,0.2s0.1,0.2,0.2,0.3S56.6,194.6,56.6,194.8z"/>
	<path d="M63.9,197.5c0.1,0.1,0.2,0.3,0.2,0.4s0.1,0.3,0.1,0.5c0,0.3-0.1,0.6-0.2,0.9s-0.3,0.5-0.5,0.6s-0.5,0.3-0.8,0.4
		s-0.6,0.1-1,0.1c-0.2,0-0.4,0-0.6-0.1s-0.3-0.1-0.4-0.1c-0.1,0.1-0.1,0.1-0.2,0.2s-0.1,0.2-0.1,0.3c0,0.1,0,0.1,0,0.2
		s0.1,0.1,0.1,0.2s0.1,0.1,0.2,0.1s0.2,0,0.3,0.1l1.4,0.1c0.3,0,0.6,0,0.9,0.1s0.5,0.2,0.7,0.3s0.3,0.3,0.4,0.5s0.1,0.4,0.1,0.6
		c0,0.3-0.1,0.5-0.2,0.8s-0.3,0.5-0.6,0.6s-0.6,0.3-0.9,0.4s-0.8,0.2-1.3,0.2c-0.5,0-0.9,0-1.2-0.1s-0.6-0.2-0.8-0.3
		s-0.4-0.3-0.5-0.5s-0.2-0.4-0.2-0.6c0-0.1,0-0.3,0.1-0.4s0.1-0.2,0.2-0.3s0.2-0.2,0.3-0.3s0.2-0.2,0.4-0.3
		c-0.2-0.1-0.3-0.3-0.4-0.4s-0.1-0.4-0.1-0.6c0-0.1,0-0.3,0.1-0.4s0.1-0.2,0.1-0.3s0.1-0.2,0.2-0.3s0.2-0.2,0.2-0.3
		c-0.1-0.1-0.3-0.3-0.4-0.5s-0.1-0.5-0.1-0.8c0-0.3,0.1-0.6,0.2-0.9s0.3-0.5,0.5-0.7s0.5-0.3,0.8-0.4s0.6-0.1,1-0.1
		c0.2,0,0.3,0,0.5,0s0.3,0,0.4,0.1h2.1v1H63.9z M60.6,203.2c0,0.2,0.1,0.4,0.3,0.5s0.6,0.2,1,0.2c0.3,0,0.5,0,0.7-0.1
		s0.3-0.1,0.5-0.2s0.2-0.2,0.3-0.3s0.1-0.2,0.1-0.3c0-0.1,0-0.2-0.1-0.3s-0.1-0.1-0.2-0.2s-0.2-0.1-0.3-0.1s-0.3,0-0.4,0l-1.3,0
		c-0.1,0.1-0.2,0.2-0.3,0.2s-0.1,0.1-0.2,0.2s-0.1,0.1-0.1,0.2S60.6,203.1,60.6,203.2z M60.8,198.4c0,0.3,0.1,0.6,0.3,0.8
		s0.4,0.3,0.8,0.3c0.2,0,0.3,0,0.5-0.1s0.2-0.1,0.3-0.2s0.2-0.2,0.2-0.3s0.1-0.3,0.1-0.4c0-0.3-0.1-0.6-0.3-0.8s-0.4-0.3-0.8-0.3
		c-0.2,0-0.3,0-0.5,0.1s-0.2,0.1-0.3,0.2s-0.2,0.2-0.2,0.3S60.8,198.2,60.8,198.4z"/>
	<path d="M69.6,202.4v-3.9c0-0.7-0.2-1-0.7-1c-0.2,0-0.5,0.1-0.7,0.3s-0.5,0.5-0.7,0.8v3.8h-1.4v-6h1.2l0,0.9
		c0.1-0.2,0.2-0.3,0.4-0.4s0.3-0.2,0.4-0.3s0.3-0.2,0.5-0.2s0.4-0.1,0.6-0.1c0.3,0,0.6,0,0.8,0.1s0.4,0.2,0.6,0.4s0.3,0.4,0.3,0.7
		s0.1,0.5,0.1,0.9v4H69.6z"/>
	<path d="M77.3,200c0,0.1,0,0.2,0,0.4s0,0.2,0,0.3c0,0.2,0,0.3,0,0.3s0.1,0.1,0.1,0.1c0.1,0,0.3-0.2,0.4-0.7s0.2-1.1,0.2-2
		c0-0.5,0-1-0.1-1.4s-0.2-0.8-0.3-1s-0.3-0.5-0.5-0.6s-0.5-0.2-0.8-0.2c-0.2,0-0.5,0.1-0.7,0.2s-0.4,0.3-0.6,0.5s-0.4,0.5-0.5,0.8
		s-0.3,0.7-0.4,1.1s-0.2,0.8-0.3,1.3s-0.1,0.9-0.1,1.4c0,0.6,0,1.1,0.1,1.5s0.2,0.8,0.4,1.1s0.4,0.5,0.6,0.7s0.5,0.2,0.8,0.2
		c0.1,0,0.3,0,0.4,0s0.3-0.1,0.5-0.1s0.3-0.1,0.5-0.2s0.3-0.2,0.5-0.3v1.1c-0.3,0.2-0.6,0.3-1,0.4s-0.7,0.1-1.1,0.1
		c-0.5,0-1-0.1-1.3-0.3s-0.7-0.5-0.9-0.9s-0.4-0.9-0.6-1.4s-0.2-1.2-0.2-2c0-0.6,0-1.2,0.1-1.7s0.2-1,0.4-1.5s0.3-0.9,0.6-1.3
		s0.5-0.7,0.7-1s0.6-0.5,0.9-0.6s0.7-0.2,1-0.2c0.5,0,0.9,0.1,1.2,0.3s0.6,0.5,0.9,0.8s0.4,0.8,0.5,1.3s0.2,1.1,0.2,1.8
		c0,0.7,0,1.3-0.1,1.7s-0.2,0.9-0.3,1.2s-0.3,0.5-0.6,0.7s-0.5,0.2-0.8,0.2c-0.5,0-0.8-0.2-0.9-0.7c-0.1,0.2-0.3,0.4-0.4,0.5
		s-0.4,0.2-0.6,0.2c-0.2,0-0.3,0-0.5-0.1s-0.3-0.2-0.4-0.3s-0.2-0.4-0.2-0.6s-0.1-0.5-0.1-0.9c0-0.3,0-0.5,0-0.8s0.1-0.5,0.1-0.8
		s0.1-0.5,0.2-0.7s0.2-0.4,0.3-0.6s0.3-0.3,0.5-0.4s0.4-0.1,0.7-0.1c0.1,0,0.3,0,0.4,0s0.2,0.1,0.3,0.1l0.9-0.2L77.3,200z
		 M76.2,197.9C76.2,197.9,76.2,197.9,76.2,197.9c-0.1-0.1-0.2-0.1-0.2-0.1c-0.1,0-0.2,0.1-0.3,0.2s-0.2,0.3-0.2,0.5
		s-0.1,0.4-0.1,0.7s0,0.5,0,0.7c0,0.2,0,0.4,0,0.5s0,0.2,0,0.3s0,0.1,0.1,0.1s0.1,0,0.1,0c0.1,0,0.1,0,0.2-0.1s0.2-0.2,0.3-0.5
		L76.2,197.9z"/>
	<path d="M85.1,197.5c0.1,0.1,0.2,0.3,0.2,0.4s0.1,0.3,0.1,0.5c0,0.3-0.1,0.6-0.2,0.9s-0.3,0.5-0.5,0.6s-0.5,0.3-0.8,0.4
		s-0.6,0.1-1,0.1c-0.2,0-0.4,0-0.6-0.1s-0.3-0.1-0.4-0.1c-0.1,0.1-0.1,0.1-0.2,0.2s-0.1,0.2-0.1,0.3c0,0.1,0,0.1,0,0.2
		S82,201,82,201s0.1,0.1,0.2,0.1s0.2,0,0.3,0.1l1.4,0.1c0.3,0,0.6,0,0.9,0.1s0.5,0.2,0.7,0.3s0.3,0.3,0.4,0.5s0.1,0.4,0.1,0.6
		c0,0.3-0.1,0.5-0.2,0.8s-0.3,0.5-0.6,0.6s-0.6,0.3-0.9,0.4s-0.8,0.2-1.3,0.2c-0.5,0-0.9,0-1.2-0.1s-0.6-0.2-0.8-0.3
		s-0.4-0.3-0.5-0.5s-0.2-0.4-0.2-0.6c0-0.1,0-0.3,0.1-0.4s0.1-0.2,0.2-0.3s0.2-0.2,0.3-0.3s0.2-0.2,0.4-0.3
		c-0.2-0.1-0.3-0.3-0.4-0.4s-0.1-0.4-0.1-0.6c0-0.1,0-0.3,0.1-0.4c0-0.1,0.1-0.2,0.1-0.3s0.1-0.2,0.2-0.3s0.2-0.2,0.2-0.3
		c-0.1-0.1-0.3-0.3-0.4-0.5s-0.1-0.5-0.1-0.8c0-0.3,0.1-0.6,0.2-0.9s0.3-0.5,0.5-0.7s0.5-0.3,0.8-0.4s0.6-0.1,1-0.1
		c0.2,0,0.3,0,0.5,0s0.3,0,0.4,0.1h2.1v1H85.1z M81.8,203.2c0,0.2,0.1,0.4,0.3,0.5s0.6,0.2,1,0.2c0.3,0,0.5,0,0.7-0.1
		s0.3-0.1,0.5-0.2s0.2-0.2,0.3-0.3s0.1-0.2,0.1-0.3c0-0.1,0-0.2-0.1-0.3s-0.1-0.1-0.2-0.2s-0.2-0.1-0.3-0.1s-0.3,0-0.4,0l-1.3,0
		c-0.1,0.1-0.2,0.2-0.3,0.2s-0.1,0.1-0.2,0.2s-0.1,0.1-0.1,0.2S81.8,203.1,81.8,203.2z M82,198.4c0,0.3,0.1,0.6,0.3,0.8
		s0.4,0.3,0.8,0.3c0.2,0,0.3,0,0.5-0.1s0.2-0.1,0.3-0.2s0.2-0.2,0.2-0.3s0.1-0.3,0.1-0.4c0-0.3-0.1-0.6-0.3-0.8s-0.4-0.3-0.8-0.3
		c-0.2,0-0.3,0-0.5,0.1s-0.2,0.1-0.3,0.2s-0.2,0.2-0.2,0.3S82,198.2,82,198.4z"/>
	<path d="M91.5,202.4v-4.1c0-0.1,0-0.3,0-0.4s0-0.2,0-0.3s-0.1-0.1-0.1-0.2s-0.1-0.1-0.2-0.1c-0.1,0-0.2,0.1-0.4,0.2
		s-0.3,0.4-0.4,0.8v3.9h-1.2v-4.1c0-0.1,0-0.3,0-0.4s0-0.2,0-0.3s-0.1-0.1-0.1-0.2s-0.1-0.1-0.2-0.1c-0.1,0-0.2,0.1-0.3,0.2
		s-0.3,0.4-0.4,0.8v3.9h-1.2v-6h1.1l0,0.9c0.1-0.2,0.2-0.3,0.3-0.5s0.2-0.2,0.3-0.3s0.2-0.1,0.3-0.2s0.2-0.1,0.4-0.1
		c0.3,0,0.6,0.1,0.8,0.3s0.3,0.4,0.3,0.7c0.1-0.2,0.2-0.3,0.3-0.5s0.2-0.2,0.3-0.3s0.2-0.1,0.3-0.2s0.2-0.1,0.4-0.1
		c0.4,0,0.8,0.2,1,0.5s0.3,0.8,0.3,1.3v4.3H91.5z"/>
	<path d="M97.7,202.4l0-0.8c-0.1,0.1-0.3,0.3-0.4,0.4s-0.3,0.2-0.5,0.3s-0.3,0.1-0.5,0.2s-0.4,0.1-0.6,0.1c-0.3,0-0.6,0-0.8-0.1
		s-0.4-0.2-0.6-0.4s-0.3-0.4-0.4-0.6s-0.1-0.5-0.1-0.8c0-0.3,0.1-0.5,0.2-0.8s0.3-0.4,0.5-0.6s0.5-0.3,0.9-0.4s0.8-0.1,1.3-0.1h0.8
		v-0.4c0-0.2,0-0.3-0.1-0.4s-0.1-0.2-0.2-0.3s-0.2-0.2-0.4-0.2s-0.3-0.1-0.6-0.1c-0.4,0-0.7,0-1,0.1s-0.7,0.2-1,0.3v-1.1
		c0.3-0.1,0.6-0.2,1-0.3s0.8-0.1,1.2-0.1c0.4,0,0.8,0,1.1,0.1s0.6,0.2,0.8,0.4s0.4,0.4,0.5,0.6s0.1,0.5,0.1,0.9v4.1H97.7z
		 M97.5,199.7h-0.9c-0.2,0-0.4,0-0.6,0.1s-0.3,0.1-0.4,0.2s-0.2,0.2-0.2,0.3s-0.1,0.2-0.1,0.3c0,0.2,0.1,0.4,0.2,0.6
		s0.4,0.2,0.6,0.2c0.2,0,0.4-0.1,0.6-0.2s0.5-0.4,0.7-0.6V199.7z"/>
	<path d="M102.1,197.5h-1.7v-1.1h3.1v4.8h1.7v1.1h-5.1v-1.1h1.9V197.5z M103.7,194.8c0,0.1,0,0.3-0.1,0.4s-0.1,0.2-0.2,0.3
		s-0.2,0.2-0.3,0.2s-0.2,0.1-0.4,0.1s-0.3,0-0.4-0.1s-0.2-0.1-0.3-0.2s-0.1-0.2-0.2-0.3s-0.1-0.2-0.1-0.4s0-0.3,0.1-0.4
		s0.1-0.2,0.2-0.3s0.2-0.2,0.3-0.2s0.2-0.1,0.4-0.1s0.3,0,0.4,0.1s0.2,0.1,0.3,0.2s0.1,0.2,0.2,0.3S103.7,194.6,103.7,194.8z"/>
	<path d="M108.3,195.2h-1.7v-1.1h3.1v7.2h1.7v1.1h-5.1v-1.1h1.9V195.2z"/>
	<path d="M114.4,200.2c0.2,0,0.3,0,0.5,0.1s0.3,0.1,0.4,0.2s0.2,0.2,0.2,0.4s0.1,0.3,0.1,0.5c0,0.2,0,0.3-0.1,0.4s-0.1,0.3-0.2,0.4
		s-0.2,0.2-0.4,0.2s-0.3,0.1-0.5,0.1c-0.2,0-0.3,0-0.4-0.1s-0.3-0.1-0.4-0.2s-0.2-0.2-0.2-0.4s-0.1-0.3-0.1-0.4c0-0.2,0-0.3,0.1-0.5
		s0.1-0.3,0.2-0.4s0.2-0.2,0.4-0.2S114.3,200.2,114.4,200.2z"/>
	<path d="M122.2,202.1c-0.3,0.1-0.6,0.2-0.9,0.3s-0.6,0.1-0.9,0.1c-0.5,0-0.9-0.1-1.3-0.2s-0.7-0.3-1-0.6s-0.5-0.6-0.6-0.9
		s-0.2-0.8-0.2-1.3c0-0.5,0.1-0.9,0.2-1.3s0.4-0.7,0.6-1s0.6-0.5,1-0.6s0.8-0.2,1.3-0.2c0.4,0,0.7,0,1,0.1s0.5,0.1,0.7,0.2v1.4
		c-0.2-0.1-0.5-0.2-0.8-0.3s-0.6-0.1-0.8-0.1c-0.3,0-0.5,0-0.7,0.1s-0.4,0.2-0.5,0.4s-0.3,0.4-0.3,0.6s-0.1,0.5-0.1,0.8
		c0,0.3,0,0.5,0.1,0.8s0.2,0.4,0.3,0.6s0.3,0.3,0.5,0.4s0.4,0.1,0.7,0.1c0.1,0,0.3,0,0.4,0s0.3,0,0.4-0.1s0.3-0.1,0.4-0.1
		s0.3-0.1,0.4-0.1V202.1z"/>
	<path d="M128.9,199.3c0,0.5-0.1,0.9-0.2,1.3s-0.3,0.7-0.6,1s-0.6,0.5-0.9,0.6s-0.8,0.2-1.2,0.2c-0.4,0-0.8-0.1-1.2-0.2
		s-0.6-0.3-0.9-0.6s-0.4-0.6-0.6-1s-0.2-0.8-0.2-1.3c0-0.5,0.1-0.9,0.2-1.3s0.3-0.7,0.6-1s0.6-0.5,0.9-0.6s0.8-0.2,1.2-0.2
		c0.4,0,0.8,0.1,1.2,0.2s0.6,0.3,0.9,0.6s0.4,0.6,0.6,1S128.9,198.8,128.9,199.3z M127.5,199.4c0-0.6-0.1-1.1-0.3-1.4
		s-0.6-0.5-1-0.5c-0.3,0-0.5,0-0.6,0.1s-0.3,0.2-0.4,0.4s-0.2,0.4-0.2,0.6s-0.1,0.5-0.1,0.7c0,0.6,0.1,1.1,0.4,1.4s0.6,0.5,1,0.5
		c0.2,0,0.4,0,0.6-0.1s0.3-0.2,0.4-0.4s0.2-0.4,0.2-0.6S127.5,199.6,127.5,199.4z"/>
	<path d="M134.6,202.4v-4.1c0-0.1,0-0.3,0-0.4s0-0.2,0-0.3s-0.1-0.1-0.1-0.2s-0.1-0.1-0.2-0.1c-0.1,0-0.2,0.1-0.4,0.2
		s-0.3,0.4-0.4,0.8v3.9h-1.2v-4.1c0-0.1,0-0.3,0-0.4s0-0.2,0-0.3s-0.1-0.1-0.1-0.2s-0.1-0.1-0.2-0.1c-0.1,0-0.2,0.1-0.3,0.2
		s-0.3,0.4-0.4,0.8v3.9h-1.2v-6h1.1l0,0.9c0.1-0.2,0.2-0.3,0.3-0.5s0.2-0.2,0.3-0.3s0.2-0.1,0.3-0.2s0.2-0.1,0.4-0.1
		c0.3,0,0.6,0.1,0.8,0.3s0.3,0.4,0.3,0.7c0.1-0.2,0.2-0.3,0.3-0.5s0.2-0.2,0.3-0.3s0.2-0.1,0.3-0.2s0.2-0.1,0.4-0.1
		c0.4,0,0.8,0.2,1,0.5s0.3,0.8,0.3,1.3v4.3H134.6z"/>
</g>
<g>
	<path d="M26.4,147.8c0-0.2,0-0.4,0-0.6s-0.1-0.3-0.1-0.4s-0.1-0.2-0.2-0.2s-0.2-0.1-0.3-0.1c-0.2,0-0.4,0.1-0.7,0.3
		s-0.5,0.5-0.7,0.9v3.8h-1.5v-6h1.3l0.1,0.9c0.1-0.2,0.2-0.3,0.3-0.4s0.3-0.2,0.4-0.3s0.3-0.2,0.5-0.2s0.4-0.1,0.6-0.1
		c0.3,0,0.6,0.1,0.8,0.2s0.4,0.3,0.6,0.5s0.3,0.5,0.4,0.8s0.1,0.7,0.1,1.1H26.4z"/>
	<path d="M30.4,145.5v3.9c0,0.3,0.1,0.6,0.2,0.7s0.3,0.2,0.6,0.2c0.2,0,0.5-0.1,0.7-0.3s0.5-0.5,0.7-0.8v-3.8h1.4v6h-1.2l0-0.9
		c-0.1,0.2-0.3,0.3-0.4,0.4s-0.3,0.2-0.4,0.3s-0.3,0.2-0.5,0.2s-0.4,0.1-0.6,0.1c-0.3,0-0.6,0-0.8-0.1s-0.4-0.2-0.6-0.4
		s-0.3-0.4-0.3-0.7s-0.1-0.5-0.1-0.9v-4H30.4z"/>
	<path d="M40.3,151.4c-0.3,0.1-0.5,0.1-0.8,0.1s-0.5,0.1-0.7,0.1c-0.4,0-0.7,0-1-0.1s-0.5-0.2-0.7-0.4s-0.3-0.4-0.4-0.6
		s-0.1-0.6-0.1-0.9v-2.9h-1.6v-1.1h1.6V144l1.5-0.4v1.9h2.3v1.1H38v2.8c0,0.3,0.1,0.6,0.2,0.8s0.4,0.3,0.8,0.3c0.2,0,0.5,0,0.7-0.1
		s0.4-0.1,0.6-0.1V151.4z"/>
	<path d="M45.2,151.5v-3.9c0-0.7-0.2-1-0.7-1c-0.2,0-0.5,0.1-0.7,0.3s-0.5,0.5-0.7,0.8v3.8h-1.4v-8.3h1.4v2l-0.1,1.1
		c0.1-0.1,0.2-0.3,0.4-0.4s0.3-0.2,0.4-0.3s0.3-0.1,0.5-0.2s0.4-0.1,0.6-0.1c0.3,0,0.6,0,0.8,0.1s0.4,0.2,0.6,0.4s0.3,0.4,0.3,0.7
		s0.1,0.5,0.1,0.9v4H45.2z"/>
	<path d="M51.9,151.5l0-0.9c-0.1,0.2-0.3,0.3-0.4,0.4s-0.3,0.2-0.4,0.3s-0.3,0.2-0.5,0.2s-0.4,0.1-0.6,0.1c-0.4,0-0.7-0.1-0.9-0.2
		s-0.5-0.3-0.7-0.6s-0.3-0.6-0.4-0.9s-0.1-0.8-0.1-1.2c0-0.5,0.1-1,0.2-1.4s0.4-0.7,0.6-1s0.6-0.5,1-0.6s0.8-0.2,1.2-0.2
		c0.1,0,0.3,0,0.4,0s0.3,0,0.4,0.1v-2.3h1.4v8.3H51.9z M49.3,148.6c0,0.3,0,0.6,0.1,0.8s0.1,0.4,0.2,0.6s0.2,0.3,0.3,0.3
		s0.3,0.1,0.4,0.1c0.2,0,0.5-0.1,0.7-0.3s0.5-0.5,0.7-0.8v-2.6c-0.1,0-0.3-0.1-0.4-0.1s-0.3,0-0.5,0c-0.2,0-0.4,0-0.6,0.1
		s-0.3,0.2-0.5,0.4s-0.2,0.4-0.3,0.6S49.3,148.2,49.3,148.6z"/>
	<path d="M59.8,148c0,0.1,0,0.2,0,0.4s0,0.3,0,0.4h-3.9c0,0.3,0,0.5,0.1,0.7s0.2,0.4,0.3,0.5s0.3,0.2,0.5,0.3s0.4,0.1,0.7,0.1
		c0.3,0,0.6,0,0.9-0.1s0.7-0.1,1-0.2v1.1c-0.2,0-0.3,0.1-0.5,0.1s-0.4,0.1-0.6,0.1s-0.4,0-0.6,0.1s-0.4,0-0.6,0
		c-0.5,0-0.9-0.1-1.2-0.2s-0.7-0.3-0.9-0.6s-0.4-0.6-0.6-0.9s-0.2-0.8-0.2-1.3c0-0.5,0.1-0.9,0.2-1.3s0.3-0.7,0.6-1s0.5-0.5,0.9-0.7
		s0.7-0.2,1.2-0.2c0.4,0,0.8,0.1,1.1,0.2s0.6,0.3,0.8,0.5s0.4,0.5,0.5,0.8S59.8,147.7,59.8,148z M58.4,147.8c0-0.2,0-0.4-0.1-0.6
		s-0.1-0.3-0.3-0.4s-0.2-0.2-0.4-0.3s-0.3-0.1-0.5-0.1c-0.4,0-0.7,0.1-0.9,0.4s-0.4,0.6-0.4,1H58.4z"/>
	<path d="M65.8,149.7c0,0.3-0.1,0.6-0.2,0.9s-0.3,0.4-0.6,0.6s-0.5,0.3-0.8,0.3s-0.6,0.1-1,0.1c-0.4,0-0.8,0-1.2-0.1s-0.7-0.1-1-0.2
		v-1.3c0.4,0.2,0.7,0.3,1.1,0.3s0.7,0.1,1,0.1c0.4,0,0.7-0.1,0.8-0.2s0.3-0.3,0.3-0.5c0-0.1,0-0.2-0.1-0.2s-0.1-0.1-0.2-0.2
		s-0.3-0.1-0.5-0.2s-0.5-0.2-0.8-0.2c-0.3-0.1-0.5-0.2-0.8-0.3s-0.4-0.2-0.5-0.4s-0.3-0.3-0.3-0.5s-0.1-0.4-0.1-0.7
		c0-0.2,0.1-0.5,0.2-0.7s0.3-0.4,0.5-0.6s0.5-0.3,0.8-0.4s0.7-0.1,1.1-0.1c0.4,0,0.7,0,1,0.1s0.5,0.1,0.8,0.1v1.2
		c-0.3-0.1-0.7-0.2-1-0.2s-0.6-0.1-0.9-0.1s-0.5,0.1-0.7,0.2s-0.3,0.3-0.3,0.4c0,0.1,0,0.2,0.1,0.2s0.1,0.1,0.2,0.2s0.2,0.1,0.4,0.2
		s0.4,0.2,0.7,0.2c0.3,0.1,0.6,0.2,0.9,0.3s0.4,0.2,0.6,0.4s0.2,0.3,0.3,0.5S65.8,149.5,65.8,149.7z"/>
	<path d="M69,146.6h-1.7v-1.1h3.1v4.8h1.7v1.1h-5.1v-1.1H69V146.6z M70.6,143.9c0,0.1,0,0.3-0.1,0.4s-0.1,0.2-0.2,0.3
		s-0.2,0.2-0.3,0.2s-0.2,0.1-0.4,0.1s-0.3,0-0.4-0.1s-0.2-0.1-0.3-0.2s-0.1-0.2-0.2-0.3s-0.1-0.2-0.1-0.4s0-0.3,0.1-0.4
		s0.1-0.2,0.2-0.3s0.2-0.2,0.3-0.2s0.2-0.1,0.4-0.1s0.3,0,0.4,0.1s0.2,0.1,0.3,0.2s0.1,0.2,0.2,0.3S70.6,143.8,70.6,143.9z"/>
	<path d="M77.9,146.6c0.1,0.1,0.2,0.3,0.2,0.4s0.1,0.3,0.1,0.5c0,0.3-0.1,0.6-0.2,0.9s-0.3,0.5-0.5,0.6s-0.5,0.3-0.8,0.4
		s-0.6,0.1-1,0.1c-0.2,0-0.4,0-0.6-0.1s-0.3-0.1-0.4-0.1c-0.1,0.1-0.1,0.1-0.2,0.2s-0.1,0.2-0.1,0.3c0,0.1,0,0.1,0,0.2
		s0.1,0.1,0.1,0.2s0.1,0.1,0.2,0.1s0.2,0,0.3,0.1l1.4,0.1c0.3,0,0.6,0,0.9,0.1s0.5,0.2,0.7,0.3s0.3,0.3,0.4,0.5s0.1,0.4,0.1,0.6
		c0,0.3-0.1,0.5-0.2,0.8s-0.3,0.5-0.6,0.6s-0.6,0.3-0.9,0.4s-0.8,0.2-1.3,0.2c-0.5,0-0.9,0-1.2-0.1s-0.6-0.2-0.8-0.3
		s-0.4-0.3-0.5-0.5s-0.2-0.4-0.2-0.6c0-0.1,0-0.3,0.1-0.4s0.1-0.2,0.2-0.3s0.2-0.2,0.3-0.3s0.2-0.2,0.4-0.3
		c-0.2-0.1-0.3-0.3-0.4-0.4s-0.1-0.4-0.1-0.6c0-0.1,0-0.3,0.1-0.4s0.1-0.2,0.1-0.3s0.1-0.2,0.2-0.3s0.2-0.2,0.2-0.3
		c-0.1-0.1-0.3-0.3-0.4-0.5s-0.1-0.5-0.1-0.8c0-0.3,0.1-0.6,0.2-0.9s0.3-0.5,0.5-0.7s0.5-0.3,0.8-0.4s0.6-0.1,1-0.1
		c0.2,0,0.3,0,0.5,0s0.3,0,0.4,0.1h2.1v1H77.9z M74.5,152.3c0,0.2,0.1,0.4,0.3,0.5s0.6,0.2,1,0.2c0.3,0,0.5,0,0.7-0.1
		s0.3-0.1,0.5-0.2s0.2-0.2,0.3-0.3s0.1-0.2,0.1-0.3c0-0.1,0-0.2-0.1-0.3s-0.1-0.1-0.2-0.2s-0.2-0.1-0.3-0.1s-0.3,0-0.4,0l-1.3,0
		c-0.1,0.1-0.2,0.2-0.3,0.2s-0.1,0.1-0.2,0.2s-0.1,0.1-0.1,0.2S74.5,152.2,74.5,152.3z M74.7,147.5c0,0.3,0.1,0.6,0.3,0.8
		s0.4,0.3,0.8,0.3c0.2,0,0.3,0,0.5-0.1s0.2-0.1,0.3-0.2s0.2-0.2,0.2-0.3s0.1-0.3,0.1-0.4c0-0.3-0.1-0.6-0.3-0.8s-0.4-0.3-0.8-0.3
		c-0.2,0-0.3,0-0.5,0.1s-0.2,0.1-0.3,0.2s-0.2,0.2-0.2,0.3S74.7,147.4,74.7,147.5z"/>
	<path d="M83.4,151.5v-3.9c0-0.7-0.2-1-0.7-1c-0.2,0-0.5,0.1-0.7,0.3s-0.5,0.5-0.7,0.8v3.8h-1.4v-6h1.2l0,0.9
		c0.1-0.2,0.2-0.3,0.4-0.4s0.3-0.2,0.4-0.3s0.3-0.2,0.5-0.2s0.4-0.1,0.6-0.1c0.3,0,0.6,0,0.8,0.1s0.4,0.2,0.6,0.4s0.3,0.4,0.3,0.7
		s0.1,0.5,0.1,0.9v4H83.4z"/>
	<path d="M87.9,149.3c0.2,0,0.3,0,0.5,0.1s0.3,0.1,0.4,0.2s0.2,0.2,0.2,0.4s0.1,0.3,0.1,0.5c0,0.2,0,0.3-0.1,0.4s-0.1,0.3-0.2,0.4
		s-0.2,0.2-0.4,0.2s-0.3,0.1-0.5,0.1c-0.2,0-0.3,0-0.4-0.1s-0.3-0.1-0.4-0.2s-0.2-0.2-0.2-0.4s-0.1-0.3-0.1-0.4c0-0.2,0-0.3,0.1-0.5
		s0.1-0.3,0.2-0.4s0.2-0.2,0.4-0.2S87.8,149.3,87.9,149.3z"/>
	<path d="M95.5,146.6c0.1,0.1,0.2,0.3,0.2,0.4s0.1,0.3,0.1,0.5c0,0.3-0.1,0.6-0.2,0.9s-0.3,0.5-0.5,0.6s-0.5,0.3-0.8,0.4
		s-0.6,0.1-1,0.1c-0.2,0-0.4,0-0.6-0.1s-0.3-0.1-0.4-0.1c-0.1,0.1-0.1,0.1-0.2,0.2s-0.1,0.2-0.1,0.3c0,0.1,0,0.1,0,0.2
		s0.1,0.1,0.1,0.2s0.1,0.1,0.2,0.1s0.2,0,0.3,0.1l1.4,0.1c0.3,0,0.6,0,0.9,0.1s0.5,0.2,0.7,0.3s0.3,0.3,0.4,0.5s0.1,0.4,0.1,0.6
		c0,0.3-0.1,0.5-0.2,0.8s-0.3,0.5-0.6,0.6s-0.6,0.3-0.9,0.4s-0.8,0.2-1.3,0.2c-0.5,0-0.9,0-1.2-0.1s-0.6-0.2-0.8-0.3
		s-0.4-0.3-0.5-0.5s-0.2-0.4-0.2-0.6c0-0.1,0-0.3,0.1-0.4s0.1-0.2,0.2-0.3s0.2-0.2,0.3-0.3s0.2-0.2,0.4-0.3
		c-0.2-0.1-0.3-0.3-0.4-0.4s-0.2-0.4-0.2-0.6c0-0.1,0-0.3,0.1-0.4s0.1-0.2,0.1-0.3s0.1-0.2,0.2-0.3s0.2-0.2,0.2-0.3
		c-0.1-0.1-0.3-0.3-0.4-0.5s-0.1-0.5-0.1-0.8c0-0.3,0.1-0.6,0.2-0.9s0.3-0.5,0.5-0.7s0.5-0.3,0.8-0.4s0.6-0.1,1-0.1
		c0.2,0,0.3,0,0.5,0s0.3,0,0.4,0.1h2.1v1H95.5z M92.1,152.3c0,0.2,0.1,0.4,0.3,0.5s0.6,0.2,1,0.2c0.3,0,0.5,0,0.7-0.1
		s0.3-0.1,0.5-0.2s0.2-0.2,0.3-0.3s0.1-0.2,0.1-0.3c0-0.1,0-0.2-0.1-0.3s-0.1-0.1-0.2-0.2s-0.2-0.1-0.3-0.1s-0.3,0-0.4,0l-1.3,0
		c-0.1,0.1-0.2,0.2-0.3,0.2s-0.1,0.1-0.2,0.2s-0.1,0.1-0.1,0.2S92.1,152.2,92.1,152.3z M92.4,147.5c0,0.3,0.1,0.6,0.3,0.8
		s0.4,0.3,0.8,0.3c0.2,0,0.3,0,0.5-0.1s0.2-0.1,0.3-0.2s0.2-0.2,0.2-0.3s0.1-0.3,0.1-0.4c0-0.3-0.1-0.6-0.3-0.8s-0.4-0.3-0.8-0.3
		c-0.2,0-0.3,0-0.5,0.1s-0.2,0.1-0.3,0.2s-0.2,0.2-0.2,0.3S92.4,147.4,92.4,147.5z"/>
	<path d="M99.3,146.6h-1.7v-1.1h3.1v4.8h1.7v1.1h-5.1v-1.1h1.9V146.6z M100.9,143.9c0,0.1,0,0.3-0.1,0.4s-0.1,0.2-0.2,0.3
		s-0.2,0.2-0.3,0.2s-0.2,0.1-0.4,0.1s-0.3,0-0.4-0.1s-0.2-0.1-0.3-0.2s-0.1-0.2-0.2-0.3S99,144,99,143.9s0-0.3,0.1-0.4
		s0.1-0.2,0.2-0.3s0.2-0.2,0.3-0.2s0.2-0.1,0.4-0.1s0.3,0,0.4,0.1s0.2,0.1,0.3,0.2s0.1,0.2,0.2,0.3S100.9,143.8,100.9,143.9z"/>
	<path d="M108,151.4c-0.3,0.1-0.5,0.1-0.8,0.1s-0.5,0.1-0.7,0.1c-0.4,0-0.7,0-1-0.1s-0.5-0.2-0.7-0.4s-0.3-0.4-0.4-0.6
		s-0.1-0.6-0.1-0.9v-2.9h-1.6v-1.1h1.6V144l1.5-0.4v1.9h2.3v1.1h-2.3v2.8c0,0.3,0.1,0.6,0.2,0.8s0.4,0.3,0.8,0.3
		c0.2,0,0.5,0,0.7-0.1s0.4-0.1,0.6-0.1V151.4z"/>
	<path d="M111.1,149.3c0.2,0,0.3,0,0.5,0.1s0.3,0.1,0.4,0.2s0.2,0.2,0.2,0.4s0.1,0.3,0.1,0.5c0,0.2,0,0.3-0.1,0.4s-0.1,0.3-0.2,0.4
		s-0.2,0.2-0.4,0.2s-0.3,0.1-0.5,0.1c-0.2,0-0.3,0-0.4-0.1s-0.3-0.1-0.4-0.2s-0.2-0.2-0.2-0.4s-0.1-0.3-0.1-0.4c0-0.2,0-0.3,0.1-0.5
		s0.1-0.3,0.2-0.4s0.2-0.2,0.4-0.2S111,149.3,111.1,149.3z"/>
	<path d="M116,146.6h-1.7v-1.1h3.1v4.8h1.7v1.1h-5.1v-1.1h1.9V146.6z M117.6,143.9c0,0.1,0,0.3-0.1,0.4s-0.1,0.2-0.2,0.3
		s-0.2,0.2-0.3,0.2s-0.2,0.1-0.4,0.1s-0.3,0-0.4-0.1s-0.2-0.1-0.3-0.2s-0.1-0.2-0.2-0.3s-0.1-0.2-0.1-0.4s0-0.3,0.1-0.4
		s0.1-0.2,0.2-0.3s0.2-0.2,0.3-0.2s0.2-0.1,0.4-0.1s0.3,0,0.4,0.1s0.2,0.1,0.3,0.2s0.1,0.2,0.2,0.3S117.6,143.8,117.6,143.9z"/>
	<path d="M125.8,148.5c0,0.5-0.1,0.9-0.2,1.3s-0.3,0.7-0.6,1s-0.6,0.5-0.9,0.6s-0.8,0.2-1.2,0.2c-0.4,0-0.8-0.1-1.2-0.2
		s-0.6-0.3-0.9-0.6s-0.4-0.6-0.6-1s-0.2-0.8-0.2-1.3c0-0.5,0.1-0.9,0.2-1.3s0.3-0.7,0.6-1s0.6-0.5,0.9-0.6s0.8-0.2,1.2-0.2
		c0.4,0,0.8,0.1,1.2,0.2s0.6,0.3,0.9,0.6s0.4,0.6,0.6,1S125.8,148,125.8,148.5z M124.3,148.5c0-0.6-0.1-1.1-0.3-1.4s-0.6-0.5-1-0.5
		c-0.3,0-0.5,0-0.6,0.1s-0.3,0.2-0.4,0.4s-0.2,0.4-0.2,0.6s-0.1,0.5-0.1,0.7c0,0.6,0.1,1.1,0.4,1.4s0.6,0.5,1,0.5
		c0.2,0,0.4,0,0.6-0.1s0.3-0.2,0.4-0.4s0.2-0.4,0.2-0.6S124.3,148.8,124.3,148.5z"/>
</g>
<g>
	<path d="M35.8,100.7c-0.9-0.8-1.7-1.7-2.1-2.6s-0.7-1.9-0.7-3c0-0.6,0.1-1.2,0.2-1.7s0.3-1,0.6-1.5s0.6-0.9,0.9-1.3
		s0.7-0.8,1.2-1.1l0.8,0.8c-0.8,0.7-1.3,1.4-1.7,2.2s-0.6,1.6-0.6,2.5c0,0.9,0.2,1.7,0.6,2.6s1,1.6,1.7,2.2L35.8,100.7z"/>
	<path d="M42.6,93.9c0,0.6-0.1,1.1-0.2,1.6s-0.2,0.8-0.4,1.1s-0.4,0.6-0.7,0.8s-0.5,0.4-0.9,0.5s-0.7,0.2-1,0.2s-0.7,0.1-1.1,0.1
		h-0.9V97h1c0.5,0,0.8,0,1.1-0.1s0.6-0.2,0.7-0.4s0.3-0.3,0.4-0.6s0.2-0.5,0.2-0.8l0-0.1c-0.2,0.1-0.4,0.2-0.7,0.2s-0.5,0.1-0.8,0.1
		c-0.4,0-0.7,0-1-0.1S38,95,37.8,94.8s-0.4-0.4-0.5-0.7s-0.2-0.7-0.2-1.1c0-0.4,0.1-0.7,0.2-1s0.3-0.6,0.6-0.8s0.5-0.4,0.9-0.5
		s0.7-0.2,1.1-0.2c0.4,0,0.8,0.1,1.1,0.2s0.6,0.3,0.9,0.6s0.4,0.6,0.6,1.1S42.6,93.2,42.6,93.9z M39.8,91.6c-0.2,0-0.4,0-0.5,0.1
		S39,91.9,38.9,92s-0.2,0.2-0.2,0.4s-0.1,0.3-0.1,0.5c0,0.4,0.1,0.7,0.3,0.9s0.5,0.3,0.9,0.3c0.1,0,0.2,0,0.3,0s0.2,0,0.4-0.1
		s0.2-0.1,0.3-0.1s0.2-0.1,0.3-0.1c0-0.3,0-0.7-0.1-0.9s-0.1-0.5-0.2-0.7s-0.2-0.3-0.4-0.4S40,91.6,39.8,91.6z"/>
	<path d="M45.6,98.2H44l3-6.3h-3.7v-1.4h5.3v1.2L45.6,98.2z"/>
	<path d="M53.4,94.1c0.2,0.1,0.4,0.2,0.5,0.3s0.3,0.3,0.5,0.4s0.2,0.4,0.3,0.6s0.1,0.4,0.1,0.7c0,0.3-0.1,0.7-0.2,0.9
		s-0.3,0.5-0.6,0.7s-0.5,0.3-0.9,0.4s-0.7,0.1-1.1,0.1c-0.4,0-0.8,0-1.1-0.1s-0.6-0.2-0.8-0.4s-0.4-0.4-0.5-0.6s-0.2-0.5-0.2-0.8
		c0-0.3,0-0.5,0.1-0.7s0.2-0.4,0.3-0.6s0.3-0.3,0.5-0.5s0.4-0.3,0.6-0.4c-0.2-0.1-0.3-0.2-0.5-0.3s-0.3-0.3-0.4-0.4
		s-0.2-0.3-0.3-0.5s-0.1-0.4-0.1-0.6c0-0.3,0.1-0.5,0.2-0.8s0.3-0.5,0.5-0.6s0.5-0.3,0.8-0.4s0.7-0.2,1.1-0.2c0.4,0,0.8,0,1.1,0.1
		s0.6,0.2,0.8,0.4s0.4,0.3,0.5,0.6s0.2,0.5,0.2,0.7c0,0.2,0,0.5-0.1,0.7s-0.2,0.4-0.3,0.5s-0.2,0.3-0.4,0.4S53.6,94,53.4,94.1z
		 M52,94.9c-0.2,0.1-0.3,0.2-0.4,0.3s-0.3,0.2-0.4,0.3s-0.2,0.2-0.2,0.4s-0.1,0.3-0.1,0.5c0,0.3,0.1,0.5,0.3,0.7s0.5,0.2,0.9,0.2
		c0.2,0,0.3,0,0.5-0.1s0.3-0.1,0.4-0.2s0.2-0.2,0.3-0.3s0.1-0.3,0.1-0.4c0-0.2,0-0.3-0.1-0.4s-0.2-0.3-0.3-0.4s-0.3-0.2-0.5-0.3
		S52.1,95,52,94.9z M52.3,93.6c0.1-0.1,0.3-0.2,0.4-0.2s0.2-0.2,0.3-0.3s0.2-0.2,0.2-0.3s0.1-0.3,0.1-0.4c0-0.3-0.1-0.4-0.3-0.6
		s-0.5-0.2-0.9-0.2c-0.4,0-0.7,0.1-0.8,0.2S51,92.1,51,92.3c0,0.1,0,0.3,0.1,0.4s0.2,0.2,0.3,0.3s0.3,0.2,0.4,0.3
		S52.1,93.5,52.3,93.6z"/>
	<path d="M56.3,89.5c1,0.8,1.7,1.7,2.1,2.6s0.7,1.9,0.7,3c0,0.6-0.1,1.2-0.2,1.7s-0.3,1-0.6,1.5s-0.6,0.9-0.9,1.3s-0.7,0.8-1.2,1.1
		l-0.8-0.8c0.8-0.7,1.3-1.4,1.7-2.2s0.6-1.6,0.6-2.5c0-0.9-0.2-1.7-0.6-2.6s-1-1.6-1.7-2.3L56.3,89.5z"/>
	<path d="M64.4,94.1c0.2,0.1,0.4,0.2,0.5,0.3s0.3,0.3,0.5,0.4s0.2,0.4,0.3,0.6s0.1,0.4,0.1,0.7c0,0.3-0.1,0.7-0.2,0.9
		s-0.3,0.5-0.6,0.7s-0.5,0.3-0.9,0.4s-0.7,0.1-1.1,0.1c-0.4,0-0.8,0-1.1-0.1s-0.6-0.2-0.8-0.4s-0.4-0.4-0.5-0.6s-0.2-0.5-0.2-0.8
		c0-0.3,0-0.5,0.1-0.7s0.2-0.4,0.3-0.6s0.3-0.3,0.5-0.5s0.4-0.3,0.6-0.4c-0.2-0.1-0.3-0.2-0.5-0.3s-0.3-0.3-0.4-0.4
		s-0.2-0.3-0.3-0.5s-0.1-0.4-0.1-0.6c0-0.3,0.1-0.5,0.2-0.8s0.3-0.5,0.5-0.6s0.5-0.3,0.8-0.4s0.7-0.2,1.1-0.2c0.4,0,0.8,0,1.1,0.1
		s0.6,0.2,0.8,0.4s0.4,0.3,0.5,0.6s0.2,0.5,0.2,0.7c0,0.2,0,0.5-0.1,0.7s-0.2,0.4-0.3,0.5s-0.2,0.3-0.4,0.4S64.6,94,64.4,94.1z
		 M63,94.9c-0.2,0.1-0.3,0.2-0.4,0.3s-0.3,0.2-0.4,0.3s-0.2,0.2-0.2,0.4s-0.1,0.3-0.1,0.5c0,0.3,0.1,0.5,0.3,0.7s0.5,0.2,0.9,0.2
		c0.2,0,0.3,0,0.5-0.1s0.3-0.1,0.4-0.2s0.2-0.2,0.3-0.3s0.1-0.3,0.1-0.4c0-0.2,0-0.3-0.1-0.4s-0.2-0.3-0.3-0.4s-0.3-0.2-0.5-0.3
		S63.1,95,63,94.9z M63.3,93.6c0.1-0.1,0.3-0.2,0.4-0.2s0.2-0.2,0.3-0.3s0.2-0.2,0.2-0.3s0.1-0.3,0.1-0.4c0-0.3-0.1-0.4-0.3-0.6
		s-0.5-0.2-0.9-0.2c-0.4,0-0.7,0.1-0.8,0.2S62,92.1,62,92.3c0,0.1,0,0.3,0.1,0.4s0.2,0.2,0.3,0.3s0.3,0.2,0.4,0.3
		S63.1,93.5,63.3,93.6z"/>
	<path d="M72.4,94.3c0,0.6-0.1,1.2-0.2,1.7s-0.3,0.9-0.6,1.3s-0.6,0.6-1,0.8s-0.8,0.3-1.3,0.3c-0.4,0-0.8-0.1-1.2-0.2
		s-0.7-0.4-0.9-0.7s-0.5-0.7-0.6-1.2s-0.2-1.1-0.2-1.8c0-0.6,0.1-1.2,0.2-1.7s0.3-0.9,0.6-1.3s0.6-0.6,1-0.8s0.8-0.3,1.3-0.3
		c0.4,0,0.8,0.1,1.2,0.2s0.7,0.4,0.9,0.7s0.5,0.7,0.6,1.2S72.4,93.6,72.4,94.3z M67.9,94.4c0,0.1,0,0.2,0,0.2s0,0.1,0,0.2l2.9-2.1
		c-0.1-0.4-0.3-0.7-0.5-0.9s-0.5-0.3-0.8-0.3c-0.2,0-0.4,0.1-0.6,0.2s-0.4,0.3-0.5,0.5s-0.2,0.5-0.3,0.9S67.9,93.9,67.9,94.4z
		 M71,94.4c0-0.1,0-0.1,0-0.2s0-0.1,0-0.2L68.1,96c0.1,0.4,0.3,0.7,0.5,0.8s0.5,0.3,0.8,0.3c0.2,0,0.4-0.1,0.6-0.2s0.4-0.3,0.5-0.5
		s0.2-0.5,0.3-0.9S71,94.9,71,94.4z"/>
	<path d="M77,94.1c0.2,0.1,0.4,0.2,0.5,0.3s0.3,0.3,0.5,0.4s0.2,0.4,0.3,0.6s0.1,0.4,0.1,0.7c0,0.3-0.1,0.7-0.2,0.9
		s-0.3,0.5-0.6,0.7s-0.5,0.3-0.9,0.4s-0.7,0.1-1.1,0.1c-0.4,0-0.8,0-1.1-0.1s-0.6-0.2-0.8-0.4s-0.4-0.4-0.5-0.6S73,96.7,73,96.4
		c0-0.3,0-0.5,0.1-0.7s0.2-0.4,0.3-0.6s0.3-0.3,0.5-0.5s0.4-0.3,0.6-0.4c-0.2-0.1-0.3-0.2-0.5-0.3s-0.3-0.3-0.4-0.4
		s-0.2-0.3-0.3-0.5s-0.1-0.4-0.1-0.6c0-0.3,0.1-0.5,0.2-0.8s0.3-0.5,0.5-0.6s0.5-0.3,0.8-0.4s0.7-0.2,1.1-0.2c0.4,0,0.8,0,1.1,0.1
		s0.6,0.2,0.8,0.4s0.4,0.3,0.5,0.6s0.2,0.5,0.2,0.7c0,0.2,0,0.5-0.1,0.7s-0.2,0.4-0.3,0.5s-0.2,0.3-0.4,0.4S77.2,94,77,94.1z
		 M75.6,94.9c-0.2,0.1-0.3,0.2-0.4,0.3s-0.3,0.2-0.4,0.3s-0.2,0.2-0.2,0.4s-0.1,0.3-0.1,0.5c0,0.3,0.1,0.5,0.3,0.7s0.5,0.2,0.9,0.2
		c0.2,0,0.3,0,0.5-0.1s0.3-0.1,0.4-0.2s0.2-0.2,0.3-0.3s0.1-0.3,0.1-0.4c0-0.2,0-0.3-0.1-0.4s-0.2-0.3-0.3-0.4s-0.3-0.2-0.5-0.3
		S75.8,95,75.6,94.9z M75.9,93.6c0.1-0.1,0.3-0.2,0.4-0.2s0.2-0.2,0.3-0.3s0.2-0.2,0.2-0.3s0.1-0.3,0.1-0.4c0-0.3-0.1-0.4-0.3-0.6
		s-0.5-0.2-0.9-0.2c-0.4,0-0.7,0.1-0.8,0.2s-0.3,0.3-0.3,0.6c0,0.1,0,0.3,0.1,0.4s0.2,0.2,0.3,0.3s0.3,0.2,0.4,0.3
		S75.7,93.5,75.9,93.6z"/>
	<path d="M79.7,95.6v-1.3h3.6v1.3H79.7z"/>
	<path d="M89.7,95.9c0,0.4-0.1,0.7-0.2,1s-0.4,0.6-0.6,0.8s-0.7,0.4-1.1,0.5s-1,0.2-1.6,0.2c-0.1,0-0.3,0-0.4,0s-0.3,0-0.4,0
		s-0.3,0-0.4,0s-0.3,0-0.4,0V97c0.2,0,0.5,0.1,0.8,0.1s0.6,0,1,0c0.3,0,0.6,0,0.8-0.1s0.4-0.1,0.6-0.2s0.3-0.2,0.3-0.4
		s0.1-0.3,0.1-0.5c0-0.2,0-0.3-0.1-0.5s-0.2-0.3-0.3-0.3s-0.3-0.2-0.6-0.2s-0.5-0.1-0.8-0.1h-0.8v-1.1h0.8c0.3,0,0.6,0,0.8-0.1
		s0.4-0.1,0.5-0.2s0.2-0.2,0.3-0.4s0.1-0.3,0.1-0.4c0-0.3-0.1-0.5-0.3-0.7s-0.5-0.2-0.9-0.2c-0.3,0-0.6,0-0.9,0.1s-0.6,0.1-0.9,0.2
		v-1.2c0.2-0.1,0.3-0.1,0.5-0.1s0.3-0.1,0.5-0.1s0.3,0,0.5-0.1s0.3,0,0.5,0c0.4,0,0.8,0,1.1,0.1s0.6,0.2,0.8,0.4s0.4,0.4,0.5,0.6
		s0.2,0.5,0.2,0.8c0,0.5-0.1,0.8-0.3,1.1S88.4,94,88,94.1c0.2,0,0.5,0.1,0.7,0.2s0.4,0.2,0.5,0.4s0.3,0.3,0.3,0.5
		S89.7,95.6,89.7,95.9z"/>
	<path d="M95.7,95.9c0,0.4-0.1,0.7-0.2,1s-0.4,0.6-0.6,0.8s-0.7,0.4-1.1,0.5s-1,0.2-1.6,0.2c-0.1,0-0.3,0-0.4,0s-0.3,0-0.4,0
		s-0.3,0-0.4,0s-0.3,0-0.4,0V97c0.2,0,0.5,0.1,0.8,0.1s0.6,0,1,0c0.3,0,0.6,0,0.8-0.1s0.4-0.1,0.6-0.2s0.3-0.2,0.3-0.4
		s0.1-0.3,0.1-0.5c0-0.2,0-0.3-0.1-0.5s-0.2-0.3-0.3-0.3s-0.3-0.2-0.6-0.2s-0.5-0.1-0.8-0.1h-0.8v-1.1h0.8c0.3,0,0.6,0,0.8-0.1
		s0.4-0.1,0.5-0.2s0.2-0.2,0.3-0.4s0.1-0.3,0.1-0.4c0-0.3-0.1-0.5-0.3-0.7s-0.5-0.2-0.9-0.2c-0.3,0-0.6,0-0.9,0.1s-0.6,0.1-0.9,0.2
		v-1.2c0.2-0.1,0.3-0.1,0.5-0.1s0.3-0.1,0.5-0.1s0.3,0,0.5-0.1s0.3,0,0.5,0c0.4,0,0.8,0,1.1,0.1s0.6,0.2,0.8,0.4s0.4,0.4,0.5,0.6
		s0.2,0.5,0.2,0.8c0,0.5-0.1,0.8-0.3,1.1s-0.5,0.5-0.9,0.7c0.2,0,0.5,0.1,0.7,0.2s0.4,0.2,0.5,0.4s0.3,0.3,0.3,0.5
		S95.7,95.6,95.7,95.9z"/>
	<path d="M101.6,95.8c0,0.4-0.1,0.8-0.3,1.1s-0.4,0.6-0.7,0.8s-0.7,0.4-1.1,0.5s-0.9,0.2-1.3,0.2c-0.1,0-0.3,0-0.4,0s-0.3,0-0.4,0
		s-0.3,0-0.4,0s-0.3,0-0.4-0.1v-1.2c0.2,0.1,0.5,0.1,0.8,0.1s0.6,0,0.9,0c0.6,0,1-0.1,1.3-0.3s0.5-0.5,0.5-0.9
		c0-0.4-0.1-0.7-0.4-0.9s-0.7-0.3-1.4-0.3h-1.5v-4.1h4.4v1.3h-3.1v1.6h0.6c0.4,0,0.8,0,1.1,0.1s0.7,0.2,0.9,0.4s0.5,0.4,0.7,0.7
		S101.6,95.3,101.6,95.8z"/>
	<path d="M104.5,98.2h-1.6l3-6.3h-3.7v-1.4h5.3v1.2L104.5,98.2z"/>
</g>
</svg>
